# xmcd CD database file
#
# Track frame offsets:
#	150
#	28536
#	49849
#	65560
#	84891
#	113967
#	133569
#	155809
#	172613
#	186464
#
# Disc length: 2706 seconds
#
# Revision: 0
# Processed by: cddbd v1.5.2PL0 Copyright (c) Steve Scherf et al.
# Submitted via: CDex 1.51
#
DISCID=800a900a
DTITLE=Rollin' Phattys - Red Hot Joe
DYEAR=1900
DGENRE=Blues
TTITLE0=Plantation Girl
TTITLE1=Red Hot Joe
TTITLE2=Paradise Street
TTITLE3=Cochon De Lait (Down On The Bayou)
TTITLE4=My Heart Is On Fire
TTITLE5=Black Bear River
TTITLE6=Greta
TTITLE7=Sugar Babe
TTITLE8=Cherry St. Blues
TTITLE9=Kim's Cowtown Shuffle
EXTD=
EXTT0=
EXTT1=
EXTT2=
EXTT3=
EXTT4=
EXTT5=
EXTT6=
EXTT7=
EXTT8=
EXTT9=
PLAYORDER=
